<svg width="152" height="160" viewBox="0 0 152 160" fill="none" xmlns="http://www.w3.org/2000/svg">
<g clip-path="url(#clip0_793_2078)">
<path d="M67.6133 60.7528L0.620281 124.005C0.231068 124.374 0.0082767 124.886 0.000224011 125.425C-0.00782868 125.966 0.201541 126.483 0.577334 126.866L11.2794 137.605C11.6632 137.988 12.1786 138.198 12.7154 138.19C13.2523 138.182 13.765 137.955 14.1327 137.562L77.1826 70.3502C77.9154 69.5664 77.8993 68.3381 77.1396 67.5731L70.3807 60.7905C69.6211 60.0309 68.3971 60.0093 67.6133 60.7474V60.7528Z" fill="#292929"/>
<path d="M132.008 136.221C131.597 135.814 131.055 135.585 130.478 135.585H64.1614C63.5924 135.585 63.0367 135.819 62.6341 136.221C62.2288 136.627 62.0006 137.188 62.0006 137.756V145.174H54.4311V152.587H42.897V160H151.742V152.587H140.211V145.174H132.642V137.756C132.642 137.18 132.416 136.633 132.008 136.221Z" fill="#292929"/>
<path d="M57.7407 40.3614L96.254 79.0099L122.629 52.5394C122.892 52.2754 123.182 52.068 123.472 51.8472L84.8085 13.0479C84.5911 13.3361 84.3817 13.6297 84.1213 13.891L57.7407 40.3614Z" fill="#292929"/>
<path d="M123.472 51.8475C123.185 52.0684 122.895 52.2758 122.629 52.5398L96.254 79.0102L95.8809 79.382C92.7135 82.5605 92.7135 87.7161 95.8809 90.8946C99.0483 94.0704 104.183 94.0704 107.351 90.8946L134.099 64.047C137.266 60.8685 137.266 55.7183 134.099 52.5398C131.195 49.6225 126.653 49.4151 123.472 51.8475Z" fill="#515151"/>
<path d="M72.6517 2.38388L45.9034 29.2261C42.736 32.4046 42.736 37.5602 45.9034 40.7387C49.0708 43.9145 54.2057 43.9145 57.3704 40.7387L57.7408 40.3616L84.1214 13.8911C84.3818 13.6299 84.5912 13.3363 84.8086 13.048C87.2352 9.85606 87.0231 5.3011 84.1214 2.38388C80.9541 -0.794626 75.8191 -0.794626 72.6517 2.38388Z" fill="#515151"/>
</g>
<defs>
<clipPath id="clip0_793_2078">
<rect width="152" height="160" fill="white"/>
</clipPath>
</defs>
</svg>
