<svg width="13" height="13" viewBox="0 0 13 13" fill="none" xmlns="http://www.w3.org/2000/svg">
<g clip-path="url(#clip0_1309_3781)">
<path d="M3.79167 8.66634C2.59505 8.66634 1.625 7.69629 1.625 6.49967C1.625 5.46669 2.34789 4.60254 3.31538 4.38552C3.27258 4.19431 3.25 3.99546 3.25 3.79134C3.25 2.29557 4.46256 1.08301 5.95833 1.08301C7.26879 1.08301 8.36186 2.01373 8.6126 3.2502C8.63058 3.24985 8.6486 3.24967 8.66667 3.24967C10.1624 3.24967 11.375 4.46224 11.375 5.95801C11.375 7.26828 10.4445 8.36123 9.20833 8.61216M8.125 7.04134L6.5 5.41634M6.5 5.41634L4.875 7.04134M6.5 5.41634L6.5 11.9163" stroke="black" stroke-width="1.3" stroke-linecap="round" stroke-linejoin="round"/>
</g>
<defs>
<clipPath id="clip0_1309_3781">
<rect width="13" height="13" fill="white"/>
</clipPath>
</defs>
</svg>
