<svg width="20" height="20" viewBox="0 0 20 20" fill="none" xmlns="http://www.w3.org/2000/svg">
<path fill-rule="evenodd" clip-rule="evenodd" d="M4.16667 14.1667C4.16667 15.0871 4.91286 15.8333 5.83333 15.8333L14.1667 15.8333C15.0871 15.8333 15.8333 15.0871 15.8333 14.1667L15.8333 13.3333C15.8333 12.8731 16.2064 12.5 16.6667 12.5C17.1269 12.5 17.5 12.8731 17.5 13.3333L17.5 14.1667C17.5 16.0076 16.0076 17.5 14.1667 17.5L5.83333 17.5C3.99238 17.5 2.5 16.0076 2.5 14.1667L2.5 13.3333C2.5 12.8731 2.8731 12.5 3.33333 12.5C3.79357 12.5 4.16667 12.8731 4.16667 13.3333L4.16667 14.1667ZM6.07741 9.41074C6.40285 9.08531 6.93048 9.08531 7.25592 9.41074L9.16667 11.3215L9.16666 3.33333C9.16666 2.8731 9.53976 2.5 10 2.5C10.4602 2.5 10.8333 2.8731 10.8333 3.33333L10.8333 11.3215L12.7441 9.41074C13.0695 9.08531 13.5972 9.08531 13.9226 9.41074C14.248 9.73618 14.248 10.2638 13.9226 10.5893L10.5893 13.9226C10.2638 14.248 9.73618 14.248 9.41074 13.9226L6.07741 10.5893C5.75197 10.2638 5.75197 9.73618 6.07741 9.41074Z" fill="#0F172A"/>
</svg>
