<svg width="24" height="24" viewBox="0 0 24 24" fill="none" xmlns="http://www.w3.org/2000/svg">
<g clip-path="url(#clip0_656_2084)">
<path d="M17.7029 23.0311C17.5139 23.0311 17.3209 23.0071 17.1297 22.9571L1.66538 18.8159C0.472415 18.4869 -0.238601 17.2529 0.0734183 16.0608L1.77341 9.54175C1.87742 9.14166 2.28649 8.89867 2.68841 9.00579C3.08851 9.10979 3.32948 9.51978 3.22456 9.92079L1.52438 16.441C1.41946 16.8429 1.65842 17.2578 2.05851 17.3679L17.5139 21.5071C17.9109 21.612 18.3209 21.376 18.4249 20.981L18.9528 18.8509C19.0529 18.449 19.4589 18.2049 19.8608 18.303C20.2629 18.403 20.5079 18.8089 20.4089 19.2109L19.879 21.3511C19.6118 22.364 18.6999 23.0311 17.7029 23.0311Z" fill="#8D8D8D"/>
<path d="M17.7029 23.0311C17.5139 23.0311 17.3209 23.0071 17.1297 22.9571L1.66538 18.8159C0.472415 18.4869 -0.238601 17.2529 0.0734183 16.0608L1.77341 9.54175C1.87742 9.14166 2.28649 8.89867 2.68841 9.00579C3.08851 9.10979 3.32948 9.51978 3.22456 9.92079L1.52438 16.441C1.41946 16.8429 1.65842 17.2578 2.05851 17.3679L17.5139 21.5071C17.9109 21.612 18.3209 21.376 18.4249 20.981L18.9528 18.8509C19.0529 18.449 19.4589 18.2049 19.8608 18.303C20.2629 18.403 20.5079 18.8089 20.4089 19.2109L19.879 21.3511C19.6118 22.364 18.6999 23.0311 17.7029 23.0311Z" fill="black" fill-opacity="0.2"/>
<path d="M17.7029 23.0311C17.5139 23.0311 17.3209 23.0071 17.1297 22.9571L1.66538 18.8159C0.472415 18.4869 -0.238601 17.2529 0.0734183 16.0608L1.77341 9.54175C1.87742 9.14166 2.28649 8.89867 2.68841 9.00579C3.08851 9.10979 3.32948 9.51978 3.22456 9.92079L1.52438 16.441C1.41946 16.8429 1.65842 17.2578 2.05851 17.3679L17.5139 21.5071C17.9109 21.612 18.3209 21.376 18.4249 20.981L18.9528 18.8509C19.0529 18.449 19.4589 18.2049 19.8608 18.303C20.2629 18.403 20.5079 18.8089 20.4089 19.2109L19.879 21.3511C19.6118 22.364 18.6999 23.0311 17.7029 23.0311Z" fill="black" fill-opacity="0.2"/>
<path d="M21.75 17.0313H6.24957C5.00863 17.0313 3.99951 16.0222 3.99951 14.7812V3.28082C3.99951 2.03988 5.00863 1.03076 6.24957 1.03076H21.75C22.9909 1.03076 24.0001 2.03988 24.0001 3.28082V14.7812C24.0001 16.0222 22.9909 17.0313 21.75 17.0313ZM6.24957 2.5308C5.83556 2.5308 5.49955 2.86681 5.49955 3.28082V14.7812C5.49955 15.1952 5.83556 15.5312 6.24957 15.5312H21.75C22.164 15.5312 22.5 15.1952 22.5 14.7812V3.28082C22.5 2.86681 22.164 2.5308 21.75 2.5308H6.24957Z" fill="#8D8D8D"/>
<path d="M21.75 17.0313H6.24957C5.00863 17.0313 3.99951 16.0222 3.99951 14.7812V3.28082C3.99951 2.03988 5.00863 1.03076 6.24957 1.03076H21.75C22.9909 1.03076 24.0001 2.03988 24.0001 3.28082V14.7812C24.0001 16.0222 22.9909 17.0313 21.75 17.0313ZM6.24957 2.5308C5.83556 2.5308 5.49955 2.86681 5.49955 3.28082V14.7812C5.49955 15.1952 5.83556 15.5312 6.24957 15.5312H21.75C22.164 15.5312 22.5 15.1952 22.5 14.7812V3.28082C22.5 2.86681 22.164 2.5308 21.75 2.5308H6.24957Z" fill="black" fill-opacity="0.2"/>
<path d="M21.75 17.0313H6.24957C5.00863 17.0313 3.99951 16.0222 3.99951 14.7812V3.28082C3.99951 2.03988 5.00863 1.03076 6.24957 1.03076H21.75C22.9909 1.03076 24.0001 2.03988 24.0001 3.28082V14.7812C24.0001 16.0222 22.9909 17.0313 21.75 17.0313ZM6.24957 2.5308C5.83556 2.5308 5.49955 2.86681 5.49955 3.28082V14.7812C5.49955 15.1952 5.83556 15.5312 6.24957 15.5312H21.75C22.164 15.5312 22.5 15.1952 22.5 14.7812V3.28082C22.5 2.86681 22.164 2.5308 21.75 2.5308H6.24957Z" fill="black" fill-opacity="0.2"/>
<path d="M8.99968 8.03098C7.89663 8.03098 6.99957 7.13393 6.99957 6.03087C6.99957 4.92782 7.89663 4.03076 8.99968 4.03076C10.1027 4.03076 10.9996 4.92782 10.9996 6.03087C10.9996 7.13393 10.1027 8.03098 8.99968 8.03098ZM8.99968 5.5308C8.72355 5.5308 8.49961 5.75492 8.49961 6.03087C8.49961 6.30682 8.72355 6.53094 8.99968 6.53094C9.27563 6.53094 9.49957 6.30682 9.49957 6.03087C9.49957 5.75492 9.27563 5.5308 8.99968 5.5308Z" fill="#8D8D8D"/>
<path d="M8.99968 8.03098C7.89663 8.03098 6.99957 7.13393 6.99957 6.03087C6.99957 4.92782 7.89663 4.03076 8.99968 4.03076C10.1027 4.03076 10.9996 4.92782 10.9996 6.03087C10.9996 7.13393 10.1027 8.03098 8.99968 8.03098ZM8.99968 5.5308C8.72355 5.5308 8.49961 5.75492 8.49961 6.03087C8.49961 6.30682 8.72355 6.53094 8.99968 6.53094C9.27563 6.53094 9.49957 6.30682 9.49957 6.03087C9.49957 5.75492 9.27563 5.5308 8.99968 5.5308Z" fill="black" fill-opacity="0.2"/>
<path d="M8.99968 8.03098C7.89663 8.03098 6.99957 7.13393 6.99957 6.03087C6.99957 4.92782 7.89663 4.03076 8.99968 4.03076C10.1027 4.03076 10.9996 4.92782 10.9996 6.03087C10.9996 7.13393 10.1027 8.03098 8.99968 8.03098ZM8.99968 5.5308C8.72355 5.5308 8.49961 5.75492 8.49961 6.03087C8.49961 6.30682 8.72355 6.53094 8.99968 6.53094C9.27563 6.53094 9.49957 6.30682 9.49957 6.03087C9.49957 5.75492 9.27563 5.5308 8.99968 5.5308Z" fill="black" fill-opacity="0.2"/>
<path d="M4.76949 16.0109C4.57759 16.0109 4.38551 15.9378 4.23957 15.791C3.94659 15.498 3.94659 15.0228 4.23957 14.7299L8.75964 10.2098C9.44374 9.5257 10.5567 9.5257 11.2397 10.2098L12.4488 11.4189L16.1628 6.9607C16.4948 6.56262 16.9818 6.33263 17.4989 6.3297C18.0548 6.29876 18.5049 6.55163 18.8398 6.94477L23.8181 12.7528C24.088 13.0669 24.051 13.5409 23.7369 13.8108C23.422 14.0809 22.949 14.0439 22.6789 13.7299L17.6989 7.91983C17.6328 7.84073 17.5518 7.84475 17.5068 7.83066C17.464 7.83066 17.3808 7.84366 17.3149 7.92166L13.0748 13.0119C12.9397 13.1738 12.7428 13.272 12.5328 13.2809C12.3187 13.2928 12.1168 13.2108 11.9686 13.0619L10.1787 11.2718C10.0517 11.1448 9.94674 11.1448 9.81966 11.2718L5.29959 15.791C5.15347 15.9378 4.96157 16.0109 4.76949 16.0109Z" fill="#8D8D8D"/>
<path d="M4.76949 16.0109C4.57759 16.0109 4.38551 15.9378 4.23957 15.791C3.94659 15.498 3.94659 15.0228 4.23957 14.7299L8.75964 10.2098C9.44374 9.5257 10.5567 9.5257 11.2397 10.2098L12.4488 11.4189L16.1628 6.9607C16.4948 6.56262 16.9818 6.33263 17.4989 6.3297C18.0548 6.29876 18.5049 6.55163 18.8398 6.94477L23.8181 12.7528C24.088 13.0669 24.051 13.5409 23.7369 13.8108C23.422 14.0809 22.949 14.0439 22.6789 13.7299L17.6989 7.91983C17.6328 7.84073 17.5518 7.84475 17.5068 7.83066C17.464 7.83066 17.3808 7.84366 17.3149 7.92166L13.0748 13.0119C12.9397 13.1738 12.7428 13.272 12.5328 13.2809C12.3187 13.2928 12.1168 13.2108 11.9686 13.0619L10.1787 11.2718C10.0517 11.1448 9.94674 11.1448 9.81966 11.2718L5.29959 15.791C5.15347 15.9378 4.96157 16.0109 4.76949 16.0109Z" fill="black" fill-opacity="0.2"/>
<path d="M4.76949 16.0109C4.57759 16.0109 4.38551 15.9378 4.23957 15.791C3.94659 15.498 3.94659 15.0228 4.23957 14.7299L8.75964 10.2098C9.44374 9.5257 10.5567 9.5257 11.2397 10.2098L12.4488 11.4189L16.1628 6.9607C16.4948 6.56262 16.9818 6.33263 17.4989 6.3297C18.0548 6.29876 18.5049 6.55163 18.8398 6.94477L23.8181 12.7528C24.088 13.0669 24.051 13.5409 23.7369 13.8108C23.422 14.0809 22.949 14.0439 22.6789 13.7299L17.6989 7.91983C17.6328 7.84073 17.5518 7.84475 17.5068 7.83066C17.464 7.83066 17.3808 7.84366 17.3149 7.92166L13.0748 13.0119C12.9397 13.1738 12.7428 13.272 12.5328 13.2809C12.3187 13.2928 12.1168 13.2108 11.9686 13.0619L10.1787 11.2718C10.0517 11.1448 9.94674 11.1448 9.81966 11.2718L5.29959 15.791C5.15347 15.9378 4.96157 16.0109 4.76949 16.0109Z" fill="black" fill-opacity="0.2"/>
</g>
<defs>
<clipPath id="clip0_656_2084">
<rect width="24" height="24" fill="white"/>
</clipPath>
</defs>
</svg>
