<svg width="48" height="48" viewBox="0 0 48 48" fill="none" xmlns="http://www.w3.org/2000/svg">
<g clip-path="url(#clip0_655_1997)">
<path d="M10.4156 1.5H27.7868L43.4271 14.5778L43.5187 44.866C43.5109 45.7831 42.775 46.5094 41.8781 46.5094H10.4295C9.51153 46.5025 8.78436 45.7662 8.78436 44.8688V3.14062C8.78436 2.23176 9.52196 1.5 10.4156 1.5Z" stroke="#F5F5F5" stroke-width="3"/>
<path d="M29.8202 3.20026L40.7927 12.375H29.7884L29.8202 3.20026Z" stroke="#F5F5F5" stroke-width="3"/>
<path d="M4.2656 23.1281H35.9156C36.6187 23.1281 37.1906 23.7 37.1906 24.4031V38.5406C37.1906 39.2437 36.6187 39.8156 35.9156 39.8156H4.2656C3.56248 39.8156 2.9906 39.2437 2.9906 38.5406V24.4031C2.9906 23.7 3.56248 23.1281 4.2656 23.1281Z" fill="#CC0000"/>
<path d="M13.0312 28.0406H15.2062V31.8562C15.2062 32.6531 15.1312 33.2719 14.9906 33.6844C14.8312 34.125 14.5313 34.5 14.1375 34.7437C13.7063 35.0344 13.1625 35.175 12.4875 35.175C11.775 35.175 11.2312 35.0812 10.8375 34.8844C10.4625 34.6969 10.1438 34.4062 9.9375 34.0406C9.7125 33.6187 9.58125 33.15 9.5625 32.6719L11.6344 32.3906C11.625 32.625 11.6531 32.8594 11.7188 33.0844C11.7656 33.225 11.8594 33.3562 11.9813 33.45C12.0844 33.5156 12.2063 33.5531 12.3375 33.5437C12.5531 33.5625 12.7594 33.45 12.8719 33.2719C12.9844 33.0937 13.0406 32.7844 13.0406 32.3625L13.0312 28.0406Z" fill="white"/>
<path d="M16.6406 28.0406H20.25C21.0375 28.0406 21.6281 28.2281 22.0125 28.6031C22.4063 28.9781 22.6031 29.5125 22.6031 30.1969C22.6031 30.9094 22.3875 31.4625 21.9656 31.8562C21.5438 32.25 20.8875 32.4562 20.0156 32.4562H18.825V35.0625H16.65V28.0406H16.6406ZM18.825 31.0406H19.3594C19.7812 31.0406 20.0719 30.9656 20.2406 30.825C20.4094 30.6844 20.5031 30.4781 20.4938 30.2625C20.5031 30.0562 20.4187 29.85 20.2687 29.7C20.1187 29.55 19.8469 29.4656 19.4437 29.4656H18.825V31.0406Z" fill="white"/>
<path d="M27.2625 32.5219V31.0594H30.6188V34.05C29.9813 34.4906 29.4094 34.7813 28.9125 34.9406C28.3406 35.1094 27.75 35.1938 27.1594 35.175C26.325 35.175 25.65 35.0344 25.125 34.7531C24.6 34.4625 24.1688 34.0219 23.9063 33.4875C23.6063 32.8875 23.4563 32.2219 23.475 31.5563C23.475 30.7875 23.6344 30.1219 23.9438 29.5594C24.2625 28.9969 24.75 28.5375 25.3313 28.2656C25.8094 28.0406 26.4469 27.9281 27.2531 27.9281C28.0313 27.9281 28.6125 28.0031 28.9969 28.1344C29.3719 28.2656 29.7 28.4906 29.9531 28.7906C30.225 29.1188 30.4219 29.5031 30.525 29.9156L28.4344 30.2906C28.3594 30.0469 28.2094 29.8313 27.9938 29.6813C27.7594 29.5313 27.4875 29.4563 27.2063 29.475C26.775 29.4563 26.3531 29.6438 26.0719 29.9719C25.7906 30.3 25.65 30.825 25.65 31.5375C25.65 32.2969 25.7906 32.8406 26.0813 33.1688C26.3625 33.4969 26.7656 33.6563 27.2813 33.6563C27.5156 33.6563 27.75 33.6188 27.975 33.5531C28.2375 33.4594 28.4906 33.3375 28.7344 33.1969V32.5406L27.2625 32.5219Z" fill="white"/>
</g>
<defs>
<clipPath id="clip0_655_1997">
<rect width="48" height="48" fill="white"/>
</clipPath>
</defs>
</svg>
