<svg width="48" height="48" viewBox="0 0 48 48" fill="none" xmlns="http://www.w3.org/2000/svg">
<g clip-path="url(#clip0_655_1998)">
<path d="M10.4156 1.5H27.7868L43.4271 14.5778L43.5187 44.866C43.5109 45.7831 42.775 46.5094 41.8781 46.5094H10.4295C9.51153 46.5025 8.78436 45.7662 8.78436 44.8688V3.14062C8.78436 2.23176 9.52196 1.5 10.4156 1.5Z" stroke="#F5F5F5" stroke-width="3"/>
<path d="M29.8202 3.20026L40.7927 12.375H29.7884L29.8202 3.20026Z" stroke="#F5F5F5" stroke-width="3"/>
<path d="M4.2656 23.1281H35.9156C36.6187 23.1281 37.1906 23.7 37.1906 24.4031V38.5406C37.1906 39.2437 36.6187 39.8156 35.9156 39.8156H4.2656C3.56248 39.8156 2.9906 39.2437 2.9906 38.5406V24.4031C2.9906 23.7 3.56248 23.1281 4.2656 23.1281Z" fill="#CC0000"/>
<path d="M9.01874 28.0406H12.6281C13.4156 28.0406 14.0062 28.2281 14.3906 28.6031C14.775 28.9781 14.9812 29.5125 14.9812 30.1969C14.9812 30.9094 14.7656 31.4625 14.3437 31.8562C13.9219 32.25 13.2656 32.4562 12.3937 32.4562H11.2031V35.0625H9.01874V28.0406ZM11.1937 31.0406H11.7281C12.15 31.0406 12.4406 30.9656 12.6094 30.825C12.7781 30.6844 12.8719 30.4781 12.8625 30.2625C12.8719 30.0562 12.7875 29.85 12.6375 29.7C12.4875 29.55 12.2156 29.4656 11.8125 29.4656H11.1937V31.0406Z" fill="white"/>
<path d="M16.125 28.0406H18.15L20.7938 31.9219V28.0406H22.8375V35.0625H20.7938L18.1688 31.2094V35.0625H16.125V28.0406Z" fill="white"/>
<path d="M27.8062 32.5219V31.0594H31.1625V34.05C30.525 34.4906 29.9531 34.7813 29.4562 34.9406C28.8843 35.1094 28.2937 35.1938 27.7031 35.175C26.8687 35.175 26.1937 35.0344 25.6687 34.7531C25.1437 34.4625 24.7125 34.0219 24.45 33.4875C24.15 32.8875 24 32.2219 24.0187 31.5563C24.0187 30.7875 24.1781 30.1219 24.4968 29.5594C24.8156 28.9969 25.2937 28.5375 25.8843 28.2656C26.3625 28.0406 27 27.9281 27.8062 27.9281C28.5843 27.9281 29.1656 28.0031 29.55 28.1344C29.925 28.2656 30.2531 28.4906 30.5062 28.7906C30.7781 29.1188 30.975 29.5031 31.0781 29.9156L28.9875 30.2906C28.9125 30.0469 28.7625 29.8313 28.5468 29.6813C28.3125 29.5313 28.0406 29.4563 27.7593 29.475C27.3281 29.4563 26.9062 29.6438 26.625 29.9719C26.3437 30.3 26.2031 30.825 26.2031 31.5375C26.2031 32.2969 26.3437 32.8406 26.6343 33.1688C26.9156 33.4969 27.3187 33.6563 27.8343 33.6563C28.0687 33.6563 28.3031 33.6188 28.5281 33.5531C28.7906 33.4594 29.0437 33.3375 29.2875 33.1969V32.5406L27.8062 32.5219Z" fill="white"/>
</g>
<defs>
<clipPath id="clip0_655_1998">
<rect width="48" height="48" fill="white"/>
</clipPath>
</defs>
</svg>
