<svg width="56" height="56" viewBox="0 0 56 56" fill="none" xmlns="http://www.w3.org/2000/svg">
<rect x="4" y="4" width="48" height="48" rx="24" fill="#E4F0E6"/>
<rect x="4" y="4" width="48" height="48" rx="24" stroke="#EEF9F0" stroke-width="8"/>
<path fill-rule="evenodd" clip-rule="evenodd" d="M18 23C18 21.3431 19.3431 20 21 20H35C36.6569 20 38 21.3431 38 23V26C38 26.5523 37.5523 27 37 27C36.4477 27 36 27.4477 36 28C36 28.5523 36.4477 29 37 29C37.5523 29 38 29.4477 38 30V33C38 34.6569 36.6569 36 35 36H21C19.3431 36 18 34.6569 18 33V30C18 29.4477 18.4477 29 19 29C19.5523 29 20 28.5523 20 28C20 27.4477 19.5523 27 19 27C18.4477 27 18 26.5523 18 26V23ZM32 34V33C32 32.4477 31.5523 32 31 32C30.4477 32 30 32.4477 30 33V34H21C20.4477 34 20 33.5523 20 33V30.8293C21.1652 30.4175 22 29.3062 22 28C22 26.6938 21.1652 25.5825 20 25.1707V23C20 22.4477 20.4477 22 21 22H30V23C30 23.5523 30.4477 24 31 24C31.5523 24 32 23.5523 32 23V22H35C35.5523 22 36 22.4477 36 23V25.1707C34.8348 25.5825 34 26.6938 34 28C34 29.3062 34.8348 30.4175 36 30.8293V33C36 33.5523 35.5523 34 35 34H32ZM31 26C31.5523 26 32 26.4477 32 27V29C32 29.5523 31.5523 30 31 30C30.4477 30 30 29.5523 30 29V27C30 26.4477 30.4477 26 31 26Z" fill="#52C861"/>
</svg>
