<svg width="56" height="56" viewBox="0 0 56 56" fill="none" xmlns="http://www.w3.org/2000/svg">
<circle cx="28" cy="28" r="28" fill="#FF0000" fill-opacity="0.05"/>
<circle cx="28" cy="28" r="22" fill="#FF0000" fill-opacity="0.1"/>
<path fill-rule="evenodd" clip-rule="evenodd" d="M27.9999 16.6663C21.7407 16.6663 16.6666 21.7404 16.6666 27.9997C16.6666 34.2589 21.7407 39.333 27.9999 39.333C34.2591 39.333 39.3333 34.2589 39.3333 27.9997C39.3333 21.7404 34.2591 16.6663 27.9999 16.6663ZM13.8333 27.9997C13.8333 20.1756 20.1759 13.833 27.9999 13.833C35.824 13.833 42.1666 20.1756 42.1666 27.9997C42.1666 35.8237 35.824 42.1663 27.9999 42.1663C20.1759 42.1663 13.8333 35.8237 13.8333 27.9997ZM27.9999 20.9163C28.7823 20.9163 29.4166 21.5506 29.4166 22.333V27.9997C29.4166 28.7821 28.7823 29.4163 27.9999 29.4163C27.2175 29.4163 26.5833 28.7821 26.5833 27.9997V22.333C26.5833 21.5506 27.2175 20.9163 27.9999 20.9163ZM26.5833 33.6663C26.5833 32.8839 27.2175 32.2497 27.9999 32.2497H28.0141C28.7965 32.2497 29.4308 32.8839 29.4308 33.6663C29.4308 34.4487 28.7965 35.083 28.0141 35.083H27.9999C27.2175 35.083 26.5833 34.4487 26.5833 33.6663Z" fill="#FB232C"/>
</svg>
