<svg width="31" height="32" viewBox="0 0 31 32" fill="none" xmlns="http://www.w3.org/2000/svg">
<path d="M15.0478 4.41204C15.6264 3.84185 16.2085 3.27461 16.7835 2.7003C17.652 1.83413 18.5157 0.96267 19.3824 0.0941486C19.4095 0.0670809 19.4425 0.0464859 19.4967 0.00470743C19.8402 0.3407 20.1855 0.670221 20.5213 1.00798C22.1268 2.62204 23.7223 4.2461 25.3361 5.85193C27.208 7.71489 28.6344 9.84854 29.3956 12.3958C31.8248 20.5226 27.3028 28.56 19.8019 31.182C18.3684 31.6828 16.883 32.0344 15.3517 31.9973C14.3794 31.9738 13.4365 31.9384 12.4318 31.7581C6.14345 30.3418 2.1482 26.5087 0.418353 20.322C0.0112273 18.8656 -0.063599 17.3545 0.0448108 15.8576C0.306998 12.2423 1.6633 9.0724 4.18677 6.45154C6.26247 4.2973 8.39944 2.20072 10.5105 0.0782611C10.5299 0.0588429 10.5588 0.0488396 10.6436 0C11.006 0.377771 11.3725 0.770253 11.7501 1.15097C12.793 2.20367 13.8406 3.25166 14.8875 4.30083C14.9211 4.33437 14.9641 4.35967 15.0024 4.3885C14.7102 4.70214 14.4268 5.02459 14.1245 5.32822C12.2562 7.20708 10.3797 9.07652 8.51492 10.9589C6.91882 12.57 6.05095 14.5118 6.03445 16.782C6.01265 19.6759 7.15685 22.0649 9.38809 23.8973C11.3471 25.506 13.622 26.1645 16.1454 25.8585C18.1292 25.6178 19.8485 24.777 21.2713 23.38C23.3341 21.3553 24.2709 18.8833 23.9892 16.0059C23.7978 14.0499 22.9588 12.3635 21.5677 10.963C19.396 8.7776 17.2213 6.5957 15.0484 4.41204H15.0478Z" fill="url(#paint0_linear_514_420)"/>
<path d="M20.4564 17.7082C20.431 18.4171 20.1568 19.0672 19.8278 19.6761C18.9863 21.2312 17.637 22.1438 15.934 22.4606C13.712 22.874 11.4759 21.7446 10.3454 19.8392C9.75217 18.8387 9.50391 17.7677 9.5906 16.6265C9.67905 15.4659 10.1367 14.4384 10.9451 13.6005C12.2059 12.2933 13.4991 11.0185 14.7741 9.72543C14.9569 9.53995 15.1031 9.52759 15.2924 9.71778C16.5455 10.9779 17.8134 12.2232 19.057 13.4916C19.7552 14.2035 20.204 15.0608 20.3774 16.0512C20.4564 16.6189 20.5059 17.1724 20.4564 17.7082Z" fill="#39BFFF"/>
<defs>
<linearGradient id="paint0_linear_514_420" x1="15.0276" y1="0" x2="15.0276" y2="32" gradientUnits="userSpaceOnUse">
<stop stop-color="#0656C8"/>
<stop offset="1" stop-color="#008FFE"/>
</linearGradient>
</defs>
</svg>
