<svg width="20" height="20" viewBox="0 0 20 20" fill="none" xmlns="http://www.w3.org/2000/svg">
<g clip-path="url(#clip0_951_801)">
<path d="M19.4683 17.0002L13.172 10.6689C13.4839 10.0154 13.37 9.20773 12.8295 8.66722C12.6843 8.52199 12.5196 8.40785 12.3439 8.32417L13.1163 7.55183C13.7288 7.77562 14.4561 7.65097 14.9637 7.14343C15.6507 6.45644 15.6509 5.34449 14.9637 4.65738L10.8203 0.514058C10.1349 -0.171372 9.01965 -0.171333 8.33426 0.514058C7.74414 1.1041 7.66957 1.99382 8.06664 2.65734L2.67578 8.0482C2.0011 7.64632 1.11309 7.73523 0.532972 8.31535C-0.154059 9.00234 -0.154177 10.1143 0.532972 10.8014L4.67633 14.9448C5.36332 15.6318 6.47532 15.6319 7.16239 14.9448H7.16243C7.66082 14.4463 7.79637 13.7207 7.56985 13.0982L8.34305 12.325C8.42672 12.5007 8.54086 12.6653 8.6861 12.8106C9.22219 13.3467 10.0266 13.4674 10.6852 13.1543C11.0611 13.5323 16.6626 19.1647 16.9812 19.4851C17.6666 20.1705 18.7818 20.1705 19.4672 19.4851C20.1611 18.7912 20.1467 17.6786 19.4683 17.0002ZM9.16293 1.34273C9.39141 1.11429 9.76317 1.11425 9.99164 1.34273L14.135 5.48613C14.364 5.71515 14.364 6.08581 14.135 6.3148C13.906 6.54378 13.5353 6.54382 13.3063 6.3148L9.16293 2.17144C8.93446 1.94292 8.93446 1.57121 9.16293 1.34273ZM6.33364 14.1161C6.10469 14.3451 5.73399 14.3451 5.50496 14.1161L1.3616 9.97273C1.13258 9.74371 1.13258 9.37308 1.3616 9.14406C1.59012 8.91558 1.9618 8.91562 2.19032 9.14406L6.33364 13.2874C6.56215 13.5159 6.56215 13.8877 6.33364 14.1161ZM6.85719 12.1536L3.54246 8.83886L8.85778 3.52359L12.1725 6.83832C11.9839 7.02687 7.30352 11.7072 6.85719 12.1536ZM10.3447 11.9808L10.3435 11.9819C10.115 12.2104 9.74332 12.2104 9.51481 11.9819C9.28586 11.753 9.28575 11.3825 9.51469 11.1534C9.69028 10.9778 10.9704 9.69777 11.1722 9.49593C11.4007 9.26734 11.7725 9.26761 12.0008 9.49593C12.2293 9.72441 12.2293 10.0962 12.0009 10.3246L10.3447 11.9808ZM11.5854 12.3975L12.4141 11.5687L16.5726 15.7504L15.7439 16.5791L11.5854 12.3975ZM18.6385 18.6564C18.41 18.8849 18.0383 18.8849 17.811 18.6576L16.5703 17.41L17.3989 16.5814L18.6385 17.8278C18.8676 18.0568 18.8676 18.4274 18.6385 18.6564Z" fill="black"/>
<path d="M12.3255 18.8282H11.6806C11.4084 17.4925 10.2246 16.4844 8.80976 16.4844H4.12207C2.70718 16.4844 1.52343 17.4925 1.25121 18.8282H0.606286C0.282692 18.8282 0.0203094 19.0905 0.0203094 19.4142C0.0203094 19.7378 0.282653 20.0002 0.606286 20.0002C0.924958 20.0002 12.0165 20.0002 12.3255 20.0002C12.6491 20.0002 12.9115 19.7378 12.9115 19.4142C12.9115 19.0905 12.6491 18.8282 12.3255 18.8282ZM2.46457 18.8282C2.7064 18.1461 3.35808 17.6563 4.12207 17.6563H8.80976C9.57375 17.6563 10.2254 18.1461 10.4673 18.8282H2.46457Z" fill="black"/>
</g>
<defs>
<clipPath id="clip0_951_801">
<rect width="20" height="20" fill="white"/>
</clipPath>
</defs>
</svg>
