<svg width="1080" height="1080" viewBox="0 0 1080 1080" fill="none" xmlns="http://www.w3.org/2000/svg">
<rect width="1080" height="1080" rx="540" fill="#0657C9"/>
<path d="M540.351 342.867C540.348 342.867 540.346 342.863 540.348 342.861C550.164 333.187 560.04 323.564 569.795 313.821C584.532 299.123 599.189 284.335 613.895 269.598V269.598C614.895 268.599 616.586 268.815 617.599 269.801C622.843 274.91 628.097 279.951 633.221 285.104C660.465 312.493 687.539 340.051 714.922 367.3C746.685 398.912 770.89 435.117 783.807 478.342C825.027 616.243 748.295 752.627 621.014 797.12C596.689 805.617 571.484 811.584 545.5 810.955C529 810.555 513 809.955 495.952 806.895C389.247 782.862 321.452 717.82 292.099 612.839C285.191 588.126 283.921 562.485 285.76 537.083C290.209 475.736 313.224 421.947 356.044 377.474C391.266 340.92 427.528 305.344 463.35 269.328V269.328C464.441 268.238 466.36 268.782 467.425 269.897C472.982 275.718 478.606 281.705 484.385 287.53C502.081 305.393 519.857 323.177 537.623 340.98V340.98C538.551 341.907 538.793 343.304 537.904 344.269C533.527 349.016 529.228 353.841 524.676 358.413C492.973 390.295 461.13 422.017 429.488 453.959C402.404 481.298 387.677 514.248 387.397 552.769C387.027 601.875 406.443 642.414 444.304 673.507C477.547 700.806 516.148 711.979 558.968 706.787C592.63 702.703 621.804 688.434 645.948 664.73C680.95 630.372 696.846 588.426 692.068 539.599C688.818 506.41 674.582 477.793 650.977 454.029C614.126 416.945 577.224 379.921 540.353 342.868C540.353 342.867 540.352 342.867 540.351 342.867V342.867Z" fill="url(#paint0_linear_514_411)"/>
<path d="M632.119 568.485C631.688 580.515 627.036 591.546 621.452 601.878C607.173 628.266 584.278 643.753 555.38 649.128C517.675 656.142 479.731 636.978 460.548 604.645C450.482 587.669 446.269 569.495 447.74 550.131C449.241 530.437 457.006 513.001 470.725 498.783C492.119 476.602 514.063 454.97 535.697 433.028C538.799 429.881 541.281 429.671 544.493 432.898C565.756 454.28 587.27 475.413 608.374 496.935C620.222 509.015 627.836 523.563 630.778 540.369C632.119 550.001 632.959 559.393 632.119 568.485Z" fill="white"/>
<defs>
<linearGradient id="paint0_linear_514_411" x1="540" y1="268" x2="540" y2="811" gradientUnits="userSpaceOnUse">
<stop stop-color="white"/>
<stop offset="1" stop-color="white"/>
</linearGradient>
</defs>
</svg>
